<?xml version="1.0" encoding="utf-8"?>
<!-- Generator: Adobe Illustrator 25.2.1, SVG Export Plug-In . SVG Version: 6.00 Build 0)  -->
<svg version="1.1" xmlns="http://www.w3.org/2000/svg" xmlns:xlink="http://www.w3.org/1999/xlink" x="0px" y="0px"
	 viewBox="0 0 1024 1093.94" style="enable-background:new 0 0 1024 1093.94;" xml:space="preserve">
<style type="text/css">
	.st0{fill:#FFFFFF;stroke:#231F20;stroke-miterlimit:10;}
	.st1{fill:#1D1F26;}
	.st2{fill:#DBEADB;}
	.st3{stroke:#000000;stroke-width:12.606;stroke-linecap:round;stroke-linejoin:round;stroke-miterlimit:10;}
	.st4{fill:#FFFFFF;}
	.st5{fill:#393A3A;}
	.st6{fill:none;stroke:#000000;stroke-width:2.5212;stroke-miterlimit:10;}
	.st7{fill:#E8FAF2;}
	.st8{fill:none;stroke:#000000;stroke-width:2.5212;stroke-linecap:round;stroke-linejoin:round;stroke-miterlimit:10;}
	.st9{fill:#D60000;}
	.st10{fill:#E4E5E6;}
	.st11{fill:#6D6E70;}
	.st12{fill:#58595B;}
	.st13{fill:#CED0D1;}
	.st14{fill:#909295;}
	.st15{fill:none;stroke:#000000;stroke-width:1.2606;stroke-linecap:round;stroke-linejoin:round;stroke-miterlimit:10;}
	.st16{fill:#7C422E;}
	.st17{fill:#BEE45E;}
	.st18{fill:#EAFCF4;}
	.st19{fill:#D1D1D1;}
	.st20{fill:#585858;}
	.st21{fill:#F5F5F5;}
	.st22{fill:#6B6B6B;}
	.st23{fill:#ECFEFF;}
	.st24{fill:#F69247;}
	.st25{fill:none;stroke:#000000;stroke-width:3.7818;stroke-linecap:round;stroke-linejoin:round;stroke-miterlimit:10;}
	.st26{clip-path:url(#SVGID_2_);}
	.st27{fill:#E6E6E6;}
	.st28{fill:#EBB654;}
</style>
<g id="Layer_1">
	<rect x="-0.8" class="st0" width="1024" height="1093.94"/>
	<rect y="1023.94" class="st1" width="1024" height="70"/>
	<g>
		<g>
			<g>
				<path class="st2" d="M278.12,1043.38h5.2c4.09,0,7.46,1.08,10.11,3.2c2.67,2.14,4,5.19,4,9.15c0,4.08-1.32,7.2-3.96,9.36
					c-2.65,2.17-6.06,3.24-10.24,3.24h-5.1V1043.38z M281.25,1065.5h1.1c1.62,0,3.16-0.16,4.6-0.48c1.45-0.33,2.71-0.86,3.79-1.62
					c1.07-0.78,1.94-1.77,2.58-2.99c0.64-1.22,0.97-2.74,0.97-4.55c0-1.79-0.32-3.32-0.95-4.59c-0.63-1.28-1.51-2.26-2.66-2.97
					c-1.12-0.72-2.38-1.25-3.75-1.58c-1.37-0.35-2.9-0.5-4.59-0.5h-1.1V1065.5z"/>
				<path class="st2" d="M302.03,1061.1c0.04,1.38,0.49,2.59,1.33,3.61c0.87,1.02,1.99,1.51,3.36,1.51c1.09,0,1.98-0.25,2.69-0.75
					c0.7-0.51,1.36-1.25,1.98-2.26l2.54,1.43c-0.73,1.32-1.75,2.35-3.03,3.12c-1.28,0.74-2.68,1.11-4.21,1.11
					c-2.34,0-4.2-0.76-5.6-2.31c-1.38-1.59-2.07-3.51-2.07-5.83c0-2.43,0.66-4.45,1.98-6.01c1.29-1.56,3.17-2.31,5.64-2.31
					c2.41,0,4.21,0.75,5.44,2.31c1.24,1.54,1.87,3.52,1.87,5.93v0.46H302.03z M310.93,1058.85c-0.19-1.2-0.63-2.15-1.39-2.83
					c-0.75-0.7-1.72-1.05-2.92-1.05c-0.57,0-1.12,0.08-1.62,0.27c-0.5,0.2-0.94,0.48-1.33,0.82c-0.38,0.36-0.71,0.77-0.98,1.25
					c-0.25,0.49-0.42,0.99-0.5,1.55H310.93z"/>
				<path class="st2" d="M322.77,1056.4c-0.45-0.92-1.11-1.37-2-1.37c-0.42,0-0.8,0.15-1.13,0.45c-0.34,0.3-0.5,0.67-0.5,1.08
					c0,0.4,0.13,0.75,0.38,1.02c0.25,0.28,0.6,0.53,1.05,0.78c0.29,0.13,0.51,0.25,0.67,0.3c0.15,0.09,0.4,0.21,0.77,0.37
					c0.17,0.07,0.33,0.16,0.46,0.2c0.13,0.04,0.23,0.08,0.3,0.12c1.1,0.51,1.99,1.09,2.64,1.76c0.64,0.65,0.97,1.55,0.97,2.64
					c0,1.46-0.54,2.69-1.6,3.67c-1.04,0.98-2.31,1.46-3.77,1.46c-0.61,0-1.19-0.08-1.74-0.25c-0.55-0.15-1.07-0.39-1.56-0.69
					c-0.48-0.3-0.89-0.66-1.26-1.09c-0.37-0.44-0.65-0.92-0.85-1.43l2.57-1.15c0.73,1.32,1.68,1.97,2.84,1.97
					c0.47,0,0.9-0.12,1.29-0.38c0.41-0.25,0.71-0.57,0.89-0.95c0.19-0.4,0.23-0.81,0.12-1.28c-0.11-0.43-0.45-0.87-1.03-1.27
					l-2.95-1.55c-0.5-0.26-0.95-0.53-1.33-0.8c-0.38-0.27-0.69-0.55-0.93-0.84c-0.25-0.3-0.43-0.63-0.56-0.98
					c-0.12-0.38-0.18-0.79-0.18-1.28c0-1.26,0.44-2.32,1.34-3.19c0.89-0.88,1.97-1.31,3.26-1.31c1.96,0,3.38,0.88,4.27,2.71
					L322.77,1056.4z"/>
				<path class="st2" d="M333.54,1045.77c0,0.55-0.2,1.03-0.6,1.42c-0.4,0.4-0.89,0.6-1.46,0.6c-0.58,0-1.07-0.19-1.47-0.6
					c-0.4-0.39-0.6-0.87-0.6-1.42c0-0.58,0.2-1.07,0.6-1.48c0.4-0.41,0.89-0.6,1.47-0.6c0.57,0,1.06,0.19,1.46,0.6
					C333.34,1044.7,333.54,1045.18,333.54,1045.77z M332.98,1068.34h-3.01v-15.49h3.01V1068.34z"/>
				<path class="st2" d="M352.39,1068.06c0,2.9-0.55,5.17-1.67,6.79c-1.12,1.58-3.1,2.37-5.94,2.37c-2.2,0-4-0.63-5.4-1.88
					c-1.38-1.25-2.09-2.96-2.13-5.13h2.99c0,1.39,0.44,2.46,1.28,3.24c0.87,0.75,2,1.13,3.4,1.13c1.71,0,2.88-0.49,3.52-1.5
					c0.63-1,0.94-2.38,0.94-4.2v-2.95h-0.07c-0.62,0.95-1.39,1.67-2.31,2.18c-0.92,0.52-1.91,0.77-2.98,0.77
					c-2.32,0-4.15-0.8-5.48-2.41c-1.33-1.62-1.98-3.59-1.98-5.96c0-2.24,0.67-4.12,2.02-5.69c1.36-1.62,3.12-2.41,5.31-2.41
					c2.28,0,4.11,1.04,5.42,3.08h0.07v-2.63h3V1068.06z M344.49,1066.22c1.57,0,2.8-0.54,3.69-1.61c0.91-1.11,1.37-2.45,1.37-4.01
					c0-1.55-0.46-2.86-1.37-3.95c-0.88-1.07-2.12-1.62-3.69-1.62c-1.5,0-2.7,0.55-3.61,1.67c-0.89,1.08-1.34,2.38-1.34,3.9
					c0,1.56,0.45,2.88,1.34,3.97C341.8,1065.69,343,1066.22,344.49,1066.22z"/>
				<path class="st2" d="M359.29,1054.93h0.07c0.43-0.83,1.09-1.44,1.93-1.88c0.85-0.45,1.77-0.65,2.77-0.65
					c1.02,0,1.88,0.14,2.6,0.45c0.7,0.3,1.28,0.74,1.71,1.32c0.44,0.58,0.75,1.27,0.94,2.1c0.19,0.82,0.28,1.78,0.28,2.82v9.24h-3
					v-8.87c0-1.53-0.23-2.64-0.66-3.34c-0.45-0.73-1.37-1.1-2.77-1.1c-0.52,0-0.95,0.05-1.3,0.15c-0.36,0.09-0.67,0.23-0.94,0.42
					c-0.27,0.19-0.49,0.41-0.67,0.65c-0.17,0.25-0.35,0.51-0.5,0.81c-0.07,0.14-0.13,0.35-0.19,0.59c-0.05,0.24-0.1,0.49-0.14,0.73
					c-0.05,0.26-0.09,0.51-0.1,0.77c-0.02,0.26-0.03,0.46-0.03,0.61v1.45v7.12h-3v-15.49h3V1054.93z"/>
				<path class="st2" d="M383.14,1039.61h3v15.82h0.07c1.38-2.03,3.19-3.03,5.44-3.03c2.17,0,3.95,0.8,5.31,2.41
					c1.35,1.56,2.03,3.45,2.03,5.69c0,2.37-0.67,4.34-2,5.96c-1.34,1.61-3.17,2.41-5.47,2.41c-1.06,0-2.06-0.25-2.99-0.77
					c-0.92-0.51-1.69-1.23-2.31-2.18h-0.07v2.42h-3V1039.61z M390.91,1066.22c1.58,0,2.81-0.54,3.7-1.61
					c0.91-1.11,1.36-2.45,1.36-4.01c0-1.55-0.45-2.86-1.36-3.95c-0.89-1.07-2.12-1.62-3.7-1.62c-1.49,0-2.7,0.55-3.61,1.67
					c-0.89,1.08-1.34,2.38-1.34,3.9c0,1.56,0.45,2.88,1.34,3.97C388.21,1065.69,389.42,1066.22,390.91,1066.22z"/>
				<path class="st2" d="M399.41,1052.85h3.5l5.27,9.83l4.91-9.83h3.37l-12.65,24.37h-3.4l6.15-11.53L399.41,1052.85z"/>
				<path class="st2" d="M431.59,1062.08l-2.87,6.26h-3.37l12-26.01l12.01,26.01h-3.37l-2.88-6.26H431.59z M437.36,1049.14
					l-4.47,10.11h8.94L437.36,1049.14z"/>
				<path class="st2" d="M454.26,1068.34h-3v-28.73h3V1068.34z"/>
				<path class="st2" d="M461.66,1068.34h-2.99v-28.73h2.99V1068.34z"/>
				<path class="st2" d="M473.07,1056.5v2.47h-7.29v-2.47H473.07z"/>
				<path class="st2" d="M484.75,1042.62c-0.94-0.43-1.61-0.62-2-0.62c-0.64,0-1.12,0.18-1.4,0.6c-0.29,0.4-0.48,0.9-0.6,1.5
					c-0.06,0.45-0.1,0.79-0.12,1.05c-0.01,0.24-0.02,0.6-0.02,1.03v6.66h4.14v2.78h-4.14v12.71h-2.99v-12.71h-1.37v-2.78h1.37v-7.55
					c0-4.06,1.67-6.09,5.03-6.09c0.74,0,1.43,0.13,2.11,0.4V1042.62z"/>
				<path class="st2" d="M489.39,1055.37h0.09c0.39-0.93,0.94-1.66,1.68-2.18c0.74-0.55,1.6-0.79,2.59-0.79
					c0.83,0,1.65,0.24,2.47,0.75l-1.37,2.72c-0.48-0.42-1.1-0.63-1.83-0.63c-1.53,0-2.56,0.62-3.07,1.84
					c-0.22,0.58-0.38,1.17-0.46,1.72c-0.07,0.55-0.11,1.2-0.11,1.92v7.62h-3v-15.49h3V1055.37z"/>
				<path class="st2" d="M499.69,1061.1c0.05,1.38,0.48,2.59,1.33,3.61c0.88,1.02,1.99,1.51,3.37,1.51c1.09,0,1.99-0.25,2.69-0.75
					c0.7-0.51,1.36-1.25,1.98-2.26l2.53,1.43c-0.73,1.32-1.73,2.35-3.02,3.12c-1.27,0.74-2.68,1.11-4.22,1.11
					c-2.32,0-4.2-0.76-5.6-2.31c-1.37-1.59-2.07-3.51-2.07-5.83c0-2.43,0.65-4.45,1.98-6.01c1.28-1.56,3.16-2.31,5.62-2.31
					c2.42,0,4.23,0.75,5.45,2.31c1.25,1.54,1.86,3.52,1.86,5.93v0.46H499.69z M508.59,1058.85c-0.18-1.2-0.64-2.15-1.39-2.83
					c-0.74-0.7-1.72-1.05-2.92-1.05c-0.57,0-1.12,0.08-1.61,0.27c-0.5,0.2-0.95,0.48-1.34,0.82c-0.39,0.36-0.71,0.77-0.97,1.25
					c-0.24,0.49-0.43,0.99-0.52,1.55H508.59z"/>
				<path class="st2" d="M515.96,1061.1c0.05,1.38,0.5,2.59,1.34,3.61c0.86,1.02,1.98,1.51,3.36,1.51c1.1,0,1.99-0.25,2.69-0.75
					c0.7-0.51,1.37-1.25,1.98-2.26l2.53,1.43c-0.73,1.32-1.73,2.35-3,3.12c-1.28,0.74-2.69,1.11-4.23,1.11
					c-2.33,0-4.2-0.76-5.6-2.31c-1.38-1.59-2.07-3.51-2.07-5.83c0-2.43,0.65-4.45,1.97-6.01c1.29-1.56,3.16-2.31,5.65-2.31
					c2.39,0,4.21,0.75,5.42,2.31c1.25,1.54,1.86,3.52,1.86,5.93v0.46H515.96z M524.88,1058.85c-0.18-1.2-0.65-2.15-1.39-2.83
					c-0.75-0.7-1.73-1.05-2.91-1.05c-0.59,0-1.13,0.08-1.63,0.27c-0.5,0.2-0.95,0.48-1.33,0.82c-0.39,0.36-0.73,0.77-0.97,1.25
					c-0.26,0.49-0.43,0.99-0.52,1.55H524.88z"/>
				<path class="st2" d="M537.57,1056.5v2.47h-7.29v-2.47H537.57z"/>
				<path class="st2" d="M553.15,1065.92h-0.05c-0.63,0.95-1.4,1.67-2.33,2.18c-0.92,0.52-1.92,0.77-2.98,0.77
					c-2.33,0-4.14-0.8-5.47-2.41c-1.34-1.62-2-3.59-2-5.96c0-2.24,0.67-4.12,2.03-5.69c1.36-1.62,3.12-2.41,5.31-2.41
					c2.24,0,4.05,1,5.44,3.03h0.05v-15.82h3v28.73h-3V1065.92z M548.24,1066.22c1.59,0,2.83-0.54,3.71-1.61
					c0.9-1.11,1.37-2.45,1.37-4.01c0-1.55-0.46-2.86-1.37-3.95c-0.88-1.07-2.12-1.62-3.71-1.62c-1.48,0-2.68,0.55-3.59,1.67
					c-0.89,1.08-1.34,2.38-1.34,3.9c0,1.56,0.45,2.88,1.34,3.97C545.56,1065.69,546.76,1066.22,548.24,1066.22z"/>
				<path class="st2" d="M561.05,1054.77c1.62-1.58,3.61-2.37,5.94-2.37c2.33,0,4.31,0.79,5.9,2.37c1.63,1.59,2.44,3.55,2.44,5.87
					c0,2.32-0.81,4.27-2.44,5.86c-1.58,1.59-3.57,2.37-5.9,2.37c-2.34,0-4.32-0.78-5.94-2.37c-1.59-1.59-2.39-3.54-2.39-5.86
					C558.66,1058.32,559.46,1056.36,561.05,1054.77z M561.65,1060.64c0,1.43,0.53,2.7,1.58,3.81c1.02,1.06,2.28,1.58,3.77,1.58
					c1.45,0,2.72-0.53,3.76-1.58c1.05-1.1,1.58-2.37,1.58-3.81c0-1.46-0.52-2.73-1.58-3.81c-1.04-1.07-2.31-1.59-3.76-1.59
					c-1.49,0-2.75,0.52-3.77,1.59C562.18,1057.91,561.65,1059.18,561.65,1060.64z"/>
				<path class="st2" d="M583.4,1062.72l4.6-10.73l4.57,10.73l4.53-9.86h3.41l-7.94,16.02l-4.57-10.35l-4.6,10.35l-7.93-16.02h3.4
					L583.4,1062.72z"/>
				<path class="st2" d="M605.01,1054.93h0.06c0.44-0.83,1.1-1.44,1.95-1.88c0.83-0.45,1.77-0.65,2.76-0.65
					c1.03,0,1.89,0.14,2.6,0.45c0.71,0.3,1.29,0.74,1.71,1.32c0.46,0.58,0.76,1.27,0.95,2.1c0.19,0.82,0.27,1.78,0.27,2.82v9.24h-3
					v-8.87c0-1.53-0.21-2.64-0.66-3.34c-0.46-0.73-1.37-1.1-2.78-1.1c-0.51,0-0.94,0.05-1.31,0.15c-0.34,0.09-0.66,0.23-0.92,0.42
					c-0.27,0.19-0.5,0.41-0.67,0.65c-0.18,0.25-0.33,0.51-0.5,0.81c-0.05,0.14-0.12,0.35-0.17,0.59c-0.06,0.24-0.1,0.49-0.16,0.73
					c-0.03,0.26-0.07,0.51-0.1,0.77c-0.01,0.26-0.03,0.46-0.03,0.61v1.45v7.12h-3v-15.49h3V1054.93z"/>
				<path class="st2" d="M622.58,1068.34h-3v-28.73h3V1068.34z"/>
				<path class="st2" d="M627.85,1054.77c1.63-1.58,3.61-2.37,5.94-2.37c2.32,0,4.3,0.79,5.9,2.37c1.62,1.59,2.43,3.55,2.43,5.87
					c0,2.32-0.81,4.27-2.43,5.86c-1.6,1.59-3.58,2.37-5.9,2.37c-2.33,0-4.31-0.78-5.94-2.37c-1.61-1.59-2.4-3.54-2.4-5.86
					C625.45,1058.32,626.25,1056.36,627.85,1054.77z M628.46,1060.64c0,1.43,0.52,2.7,1.57,3.81c1.02,1.06,2.28,1.58,3.77,1.58
					c1.47,0,2.72-0.53,3.76-1.58c1.06-1.1,1.58-2.37,1.58-3.81c0-1.46-0.53-2.73-1.58-3.81c-1.04-1.07-2.28-1.59-3.76-1.59
					c-1.49,0-2.75,0.52-3.77,1.59C628.98,1057.91,628.46,1059.18,628.46,1060.64z"/>
				<path class="st2" d="M659.5,1068.34h-3v-2.42h-0.07c-1.33,1.98-3.1,2.95-5.3,2.95c-2.29,0-4.11-0.8-5.48-2.41
					c-1.33-1.62-1.98-3.59-1.98-5.96c0-2.24,0.68-4.12,2.02-5.69c1.36-1.62,3.14-2.41,5.33-2.41c2.23,0,4.04,1,5.41,3.03h0.07v-2.57
					h3V1068.34z M651.6,1066.22c1.57,0,2.81-0.54,3.71-1.61c0.9-1.11,1.35-2.45,1.35-4.01c0-1.55-0.45-2.86-1.35-3.95
					c-0.9-1.07-2.14-1.62-3.71-1.62c-1.49,0-2.7,0.55-3.6,1.67c-0.89,1.08-1.33,2.38-1.33,3.9c0,1.56,0.44,2.88,1.33,3.97
					C648.9,1065.69,650.11,1066.22,651.6,1066.22z"/>
				<path class="st2" d="M675.05,1065.92h-0.07c-0.62,0.95-1.4,1.67-2.32,2.18c-0.91,0.52-1.91,0.77-2.98,0.77
					c-2.32,0-4.13-0.8-5.47-2.41c-1.34-1.62-1.99-3.59-1.99-5.96c0-2.24,0.67-4.12,2.04-5.69c1.35-1.62,3.11-2.41,5.29-2.41
					c2.25,0,4.06,1,5.44,3.03h0.07v-15.82h3v28.73h-3V1065.92z M670.15,1066.22c1.58,0,2.81-0.54,3.7-1.61
					c0.91-1.11,1.36-2.45,1.36-4.01c0-1.55-0.45-2.86-1.36-3.95c-0.89-1.07-2.12-1.62-3.7-1.62c-1.5,0-2.69,0.55-3.61,1.67
					c-0.88,1.08-1.32,2.38-1.32,3.9c0,1.56,0.44,2.88,1.32,3.97C667.46,1065.69,668.65,1066.22,670.15,1066.22z"/>
				<path class="st2" d="M686.65,1066.96c0,0.53-0.18,0.99-0.56,1.36c-0.38,0.37-0.84,0.55-1.38,0.55c-0.52,0-1-0.19-1.37-0.55
					c-0.37-0.37-0.57-0.83-0.57-1.36c0-0.51,0.2-0.96,0.57-1.35c0.37-0.37,0.85-0.56,1.37-0.56c0.53,0,1,0.19,1.38,0.56
					C686.47,1065.99,686.65,1066.45,686.65,1066.96z"/>
				<path class="st2" d="M703.05,1057.26c-1.24-1.39-2.74-2.1-4.47-2.1c-1.45,0-2.67,0.56-3.69,1.64c-1,1.09-1.5,2.38-1.5,3.8
					c0,1.62,0.5,2.91,1.5,3.93c1.04,1.04,2.33,1.57,3.88,1.57c1.61,0,3.04-0.7,4.28-2.07v3.81c-1.29,0.69-2.72,1.02-4.29,1.02
					c-2.31,0-4.29-0.77-5.94-2.35c-1.62-1.55-2.43-3.47-2.43-5.79c0-2.38,0.81-4.36,2.43-5.96c1.62-1.58,3.65-2.37,6.1-2.37
					c1.61,0,2.99,0.33,4.14,1.02V1057.26z"/>
				<path class="st2" d="M707.3,1054.77c1.62-1.58,3.6-2.37,5.94-2.37c2.34,0,4.31,0.79,5.91,2.37c1.61,1.59,2.42,3.55,2.42,5.87
					c0,2.32-0.8,4.27-2.42,5.86c-1.6,1.59-3.57,2.37-5.91,2.37c-2.33,0-4.31-0.78-5.94-2.37c-1.6-1.59-2.41-3.54-2.41-5.86
					C704.89,1058.32,705.7,1056.36,707.3,1054.77z M707.9,1060.64c0,1.43,0.5,2.7,1.56,3.81c1.02,1.06,2.28,1.58,3.77,1.58
					c1.46,0,2.73-0.53,3.77-1.58c1.04-1.1,1.56-2.37,1.56-3.81c0-1.46-0.53-2.73-1.56-3.81c-1.04-1.07-2.31-1.59-3.77-1.59
					c-1.5,0-2.75,0.52-3.77,1.59C708.4,1057.91,707.9,1059.18,707.9,1060.64z"/>
				<path class="st2" d="M727.2,1054.81h0.08c0.43-0.72,1.02-1.29,1.78-1.76c0.74-0.43,1.53-0.65,2.35-0.65
					c1.95,0,3.45,0.9,4.5,2.73c0.48-0.83,1.16-1.5,2.02-2c0.84-0.5,1.79-0.73,2.78-0.73c3.46,0,5.17,2.22,5.17,6.68v9.26h-3v-8.77
					c0-0.39-0.02-0.8-0.05-1.18c-0.04-0.38-0.09-0.75-0.19-1.13c-0.09-0.35-0.22-0.68-0.41-1c-0.17-0.3-0.42-0.58-0.72-0.83
					c-0.4-0.26-0.91-0.39-1.53-0.39c-0.63,0-1.16,0.13-1.59,0.39c-0.43,0.25-0.76,0.57-0.99,0.92c-0.25,0.35-0.43,0.84-0.56,1.37
					c-0.12,0.54-0.21,1.05-0.25,1.5c-0.02,0.43-0.05,0.95-0.05,1.51v7.62h-3.01v-8.2c0-0.53,0-0.96-0.03-1.31
					c-0.02-0.37-0.09-0.8-0.2-1.35c-0.11-0.57-0.25-0.98-0.43-1.25c-0.18-0.3-0.45-0.58-0.83-0.83c-0.38-0.24-0.84-0.36-1.37-0.36
					c-1.54,0-2.52,0.67-2.96,1.99c-0.21,0.61-0.34,1.21-0.41,1.74c-0.06,0.56-0.09,1.21-0.09,1.96v7.62h-3v-15.49h3V1054.81z"/>
			</g>
			<g>
				<g>
					<path class="st2" d="M208.16,1059.22c14.16,0,28.32,0,42.48,0c1.29,0,1.29-1.99,0-1.99c-14.16,0-28.32,0-42.48,0
						C206.88,1057.23,206.88,1059.22,208.16,1059.22L208.16,1059.22z"/>
				</g>
				<g>
					<path class="st2" d="M773.36,1059.22c14.15,0,28.31,0,42.47,0c1.3,0,1.3-1.99,0-1.99c-14.15,0-28.32,0-42.47,0
						C772.08,1057.23,772.08,1059.22,773.36,1059.22L773.36,1059.22z"/>
				</g>
			</g>
		</g>
	</g>
	<g>
		<path class="st3" d="M951.77,673.35c-0.96-0.04-4.96,0.06-11.33,0.26v-60.67c5.77-2.16,10.67-7.39,13.81-14.4
			c3.1-5.23,4.98-12.01,4.98-19.41c0-12.3-5.16-22.87-12.55-27.5c-3.01-2.63-6.48-4.3-10.18-4.74c-3.1-8.91-8.11-19.15-15.32-22.01
			c-18.69-7.4-134.94-16.93-134.94-16.93l-19.16-0.91c-2.01-0.81-3.66-1.78-4.37-2.91c6.22-1.04,7.81-9.4,2.31-12.48
			c-0.07-0.04-0.13-0.07-0.2-0.11c-0.77-0.42-1.64-0.65-2.52-0.68c-0.31-0.01-6.15-0.2-15.7-0.5l-60.98-100.22
			c0.81-0.85,1.37-1.95,1.52-3.2c0.38-3.11-1.84-5.94-4.95-6.32c-0.11-0.01-1.88-0.23-5.04-0.59l-4.19-4.32
			c0,0,10.06-5.03-15.81-13.17c-25.87-8.14-99.9-16.35-200.66-14.7c-100.75,1.65-213.62,18.72-220.78,19.82
			c-7.16,1.1-18.36,6.49-18.6,8.21c-0.25,1.72,7.13,1.72,7.13,1.72s-19.31,8.42-26.81,25.63c-7.5,17.2-33.08,89.98-39.7,103.65
			c-6.62,13.67-24.94,17.09-38.37,57.98c-0.24,0.73-0.48,1.48-0.71,2.23h-4.43c-3.19,0-5.78,2.59-5.78,5.78v9.48
			c0,3.28,1.72,6.16,4.3,7.8c-4.69,22.26-7.35,45.95-8.73,61.57c-11.82,3.19-10.88,9.72-10.88,9.72c0.81,4.25,4.68,6.21,9.63,7.02
			c-0.03,0.6-0.05,0.93-0.05,0.93h5.06h28.52c-0.53,3.19-0.81,6.48-0.81,9.86c0,27.85,18.83,50.43,42.05,50.43c1.42,0,6.97,0,8.39,0
			c21.1,0,38.57-18.64,41.59-42.94c3.39,0.14,7.44,0.32,12.06,0.53c9.04,6.02,23.18,11.59,45.19,13.09
			c43.39,2.95,199.1,8.09,254.67,9.88c6.41,26.55,26.81,45.96,51.01,45.96c1.79,0,8.81,0,10.6,0c24.9,0,45.79-20.55,51.54-48.28
			l11.67-0.37c7.39,1.06,16.64-0.5,21.92-0.53c6.5-0.04,29.3-1.27,58.1-2.68l-1.35,30.85c0,0-1.68,6.73,7.07,6.73
			c4.93,0,43.86-2.99,76.89-5.61c5.4,2.22,11.18,3.44,17.21,3.44c1.79,0,8.81,0,10.6,0c23.02,0,42.61-17.56,49.98-42.12
			c33.79-2.86,56.6-7.41,57.64-11.59C963.82,679.8,960.11,673.66,951.77,673.35z M474.16,499.81l-25.54,0.59l0,0
			c0-7-5.16-11.96-11.31-15.19l15.73-53.76c3.38,8.37,7.27,17.89,11.63,28.46C477.77,491.61,474.88,498.69,474.16,499.81z
			 M504.44,438.43c-3.84-12.58-7.17-23.59-9.9-32.79c21.95-2.07,34.71-2.35,41.56-2.22c3.01,0.06,5.61,2.01,6.48,4.85
			c1.71,5.59,2.91,13.66,3.58,23.99c0.89,13.89,1.57,28.5,2.05,40.05c-11.38-0.67-23.46,4.07-30.19,7.27
			C514.59,471.08,510.28,457.56,504.44,438.43z M531.52,501.02c-1.4,0.2-2.97,0.32-4.61,0.22c0.08-0.01,0.16-0.02,0.24-0.04
			c4.02-0.78,10.86-1.7,16.74-2.43C539.18,499.7,534,500.67,531.52,501.02z M525.63,489.95c6.47-2.84,15.63-5.82,23.06-4.92
			c0.02,0.6,0.04,1.19,0.06,1.74C542.52,487.5,531.76,488.81,525.63,489.95z M583.51,486.26l-0.26-2.62
			c7.88,0.1,17.3,0.04,17.3,0.04s0.16,1.65,1.5,2.88C595.49,486.44,589.27,486.33,583.51,486.26z M608.96,486.69
			c0.12-0.19,0.15-0.32,0.15-0.32c1.36-0.03,3.21,0.14,5.34,0.44C612.6,486.76,610.77,486.72,608.96,486.69z M689.58,488.67
			c1.31-0.35,1.59-1.28,1.59-1.28c2.17,0.01,5.69,0.69,9.53,1.6C697.07,488.88,693.36,488.78,689.58,488.67z M713.21,484.58
			c-0.34-5.3-23-6.17-23-6.17s0.12-3.61-3.67-4.02c-3.79-0.4-3.93,3.77-3.93,3.77l-26.6-0.86c0,0,0.46,5.1,2.27,5.83
			c1.81,0.73,25.18,1.32,25.18,1.32s0.19,3.31,3.39,4.14c-8.39-0.23-17.07-0.47-25.82-0.7c-2.77-0.59-5.05-1.06-6.16-1.41
			c-4.22-1.34-2.88-2.49-4.41-3.64c-1.53-1.15-17.26,0-17.26,0c-0.56-5.29-25.45-5.42-25.45-5.42s0-3.62-4.17-3.89
			c-4.17-0.28-4.17,3.89-4.17,3.89h-16.76l-5.92-59.78c3.52,0,6.98,0,8.92,0c4.48,0,7.8-5.49,7.8-11.42c0-1.17-0.08-2.26-0.22-3.25
			c-0.13-0.92-0.42-1.78-0.84-2.57l53.01-1.15c0.1,0,0.22-0.01,0.32-0.02c0.17-0.02,16.6-1.41,23.52,9.39
			c6.37,9.93,34.77,54.14,48.68,75.8C715.28,484.49,713.21,484.58,713.21,484.58z M744.25,704.31c15.86-0.78,33.54-1.61,51.31-2.32
			c0.05,0.13,0.1,0.26,0.15,0.4L744.25,704.31z"/>
		<g>
			<path class="st4" d="M93.12,661.42c0,0-1.49-10.3,22.68-11.35c29.06-1.26,267.6-9.55,275.94-9.3
				c8.35,0.25,12.06,5.26,10.51,10.32c-1.55,5.06-50.93,10.78-113.07,11.69c-62.15,0.91-149.27,5.36-163.05,5.43
				C116.82,668.26,95.18,672.19,93.12,661.42z"/>
			<path d="M107.76,669.37h116.49c0,0,7.4,27.36,60.51,30.97c53.12,3.61,274.55,10.51,274.55,10.51l147-4.65
				c0,0-4.9-105.21-88.37-130.64c-83.47-25.43-451.46-19.32-477.38-6.57S102.85,648.75,107.76,669.37z"/>
			<g>
				<path class="st5" d="M185.92,628.79c-1.42,0-6.97,0-8.39,0c-23.23,0-42.05,22.58-42.05,50.43c0,27.85,18.83,50.43,42.05,50.43
					c1.42,0,6.97,0,8.39,0c23.23,0,42.05-22.58,42.05-50.43C227.97,651.37,209.14,628.79,185.92,628.79z"/>
				<path class="st6" d="M185.92,628.79c-1.42,0-6.97,0-8.39,0c-23.23,0-42.05,22.58-42.05,50.43c0,27.85,18.83,50.43,42.05,50.43
					c1.42,0,6.97,0,8.39,0c23.23,0,42.05-22.58,42.05-50.43C227.97,651.37,209.14,628.79,185.92,628.79z"/>
				<ellipse class="st7" cx="168.14" cy="679.22" rx="17.78" ry="26.52"/>
				<ellipse class="st6" cx="168.14" cy="679.22" rx="17.78" ry="26.52"/>
			</g>
			<g>
				<path class="st5" d="M601.03,628.79c-1.79,0-8.81,0-10.6,0c-29.33,0-53.11,28.52-53.11,63.69c0,35.18,23.78,63.69,53.11,63.69
					c1.79,0,8.81,0,10.6,0c29.33,0,53.11-28.52,53.11-63.69C654.14,657.31,630.36,628.79,601.03,628.79z"/>
				<path class="st8" d="M601.03,628.79c-1.79,0-8.81,0-10.6,0c-29.33,0-53.11,28.52-53.11,63.69c0,35.18,23.78,63.69,53.11,63.69
					c1.79,0,8.81,0,10.6,0c29.33,0,53.11-28.52,53.11-63.69C654.14,657.31,630.36,628.79,601.03,628.79z"/>
				<ellipse class="st7" cx="578.58" cy="692.48" rx="22.45" ry="33.5"/>
				<ellipse class="st8" cx="578.58" cy="692.48" rx="22.45" ry="33.5"/>
			</g>
			<g>
				<path class="st5" d="M854.66,612.33c-1.79,0-8.81,0-10.6,0c-29.33,0-53.11,28.52-53.11,63.69c0,35.18,23.78,63.69,53.11,63.69
					c1.79,0,8.81,0,10.6,0c29.33,0,53.11-28.52,53.11-63.69C907.77,640.85,883.99,612.33,854.66,612.33z"/>
				<path class="st8" d="M854.66,612.33c-1.79,0-8.81,0-10.6,0c-29.33,0-53.11,28.52-53.11,63.69c0,35.18,23.78,63.69,53.11,63.69
					c1.79,0,8.81,0,10.6,0c29.33,0,53.11-28.52,53.11-63.69C907.77,640.85,883.99,612.33,854.66,612.33z"/>
				<ellipse class="st7" cx="832.2" cy="676.03" rx="22.45" ry="33.5"/>
				<ellipse class="st8" cx="832.2" cy="676.03" rx="22.45" ry="33.5"/>
			</g>
			<path class="st9" d="M123.99,591.58h-6.31c-5.11,0-9.25-4.14-9.25-9.25v-9.48c0-3.19,2.59-5.78,5.78-5.78h9.78
				c3.19,0,5.78,2.59,5.78,5.78v12.95C129.77,588.99,127.18,591.58,123.99,591.58z"/>
			<path class="st10" d="M748.03,492.63l-16.01-2.58c-7.11-11.06-47.59-74.08-55.35-86.18c-9.48-14.78-29.31-13.61-31.61-13.43
				l-74.96,1.63c-1.23,0.03-2.39,0.57-3.21,1.48c-0.82,0.92-1.21,2.14-1.09,3.36l9.06,91.54l-17.19,0.98
				c-0.33-9.99-1.24-34.84-2.71-57.73c-0.7-11.02-2.03-19.77-3.94-26.01c-1.99-6.49-7.91-10.95-14.74-11.09
				c-7.18-0.15-20.54,0.14-43.44,2.33c-39.61,3.79-46.08,24.26-46.73,26.75l-18.2,62.21l-38.15-3.65
				c3.43-13.91,12.82-52.25,13.71-59.2c1.36-10.7-3.13-12.44-11.19-14.59c-0.76-0.2-1.59-0.43-2.48-0.67
				c-9.74-2.71-38.79-4.56-40.05-4.64l-62.95-3.6l-72.64-2.62c-2.44-0.04-4.48,1.82-4.57,4.25c-0.09,2.43,1.81,4.48,4.25,4.57
				l72.54,2.62l62.83,3.59c8.14,0.51,30.86,2.29,38.21,4.33c0.92,0.26,1.78,0.49,2.56,0.7c1.95,0.52,4.15,1.11,4.87,1.54
				c0.06,0.33,0.12,1.22-0.16,3.41c-0.83,6.5-10.92,47.79-14.75,63.16c-0.31,1.25-0.06,2.57,0.68,3.61c0.74,1.05,1.9,1.72,3.18,1.84
				l46.87,4.48c2.1,0.21,4.06-1.12,4.65-3.15l19.25-65.79c0.03-0.1,0.04-0.13,0.06-0.23c0.17-0.69,4.65-16.84,39.01-20.13
				c22.48-2.15,35.48-2.43,42.42-2.29c3.01,0.06,5.61,2.01,6.48,4.85c1.71,5.59,2.91,13.66,3.58,23.99
				c1.87,29.2,2.83,61.63,2.84,61.95c0.04,1.19,0.55,2.32,1.43,3.12c0.88,0.81,2.03,1.23,3.23,1.15l26.3-1.5
				c1.2-0.07,2.32-0.62,3.1-1.54c0.78-0.91,1.16-2.11,1.04-3.3l-9.05-91.38l70.34-1.53c0.1,0,0.22-0.01,0.32-0.02
				c0.17-0.02,16.6-1.41,23.52,9.39c8.52,13.28,56.42,87.85,56.42,87.85c0.68,1.06,1.77,1.77,3.01,1.97l17.95,2.89
				c0.24,0.04,0.47,0.06,0.71,0.06c2.13,0,4-1.54,4.35-3.71C752.07,495.28,750.43,493.02,748.03,492.63z"/>
			<path class="st8" d="M748.03,492.63l-16.01-2.58c-7.11-11.06-47.59-74.08-55.35-86.18c-9.48-14.78-29.31-13.61-31.61-13.43
				l-74.96,1.63c-1.23,0.03-2.39,0.57-3.21,1.48c-0.82,0.92-1.21,2.14-1.09,3.36l9.06,91.54l-17.19,0.98
				c-0.33-9.99-1.24-34.84-2.71-57.73c-0.7-11.02-2.03-19.77-3.94-26.01c-1.99-6.49-7.91-10.95-14.74-11.09
				c-7.18-0.15-20.54,0.14-43.44,2.33c-39.61,3.79-46.08,24.26-46.73,26.75l-18.2,62.21l-38.15-3.65
				c3.43-13.91,12.82-52.25,13.71-59.2c1.36-10.7-3.13-12.44-11.19-14.59c-0.76-0.2-1.59-0.43-2.48-0.67
				c-9.74-2.71-38.79-4.56-40.05-4.64l-62.95-3.6l-72.64-2.62c-2.44-0.04-4.48,1.82-4.57,4.25c-0.09,2.43,1.81,4.48,4.25,4.57
				l72.54,2.62l62.83,3.59c8.14,0.51,30.86,2.29,38.21,4.33c0.92,0.26,1.78,0.49,2.56,0.7c1.95,0.52,4.15,1.11,4.87,1.54
				c0.06,0.33,0.12,1.22-0.16,3.41c-0.83,6.5-10.92,47.79-14.75,63.16c-0.31,1.25-0.06,2.57,0.68,3.61c0.74,1.05,1.9,1.72,3.18,1.84
				l46.87,4.48c2.1,0.21,4.06-1.12,4.65-3.15l19.25-65.79c0.03-0.1,0.04-0.13,0.06-0.23c0.17-0.69,4.65-16.84,39.01-20.13
				c22.48-2.15,35.48-2.43,42.42-2.29c3.01,0.06,5.61,2.01,6.48,4.85c1.71,5.59,2.91,13.66,3.58,23.99
				c1.87,29.2,2.83,61.63,2.84,61.95c0.04,1.19,0.55,2.32,1.43,3.12c0.88,0.81,2.03,1.23,3.23,1.15l26.3-1.5
				c1.2-0.07,2.32-0.62,3.1-1.54c0.78-0.91,1.16-2.11,1.04-3.3l-9.05-91.38l70.34-1.53c0.1,0,0.22-0.01,0.32-0.02
				c0.17-0.02,16.6-1.41,23.52,9.39c8.52,13.28,56.42,87.85,56.42,87.85c0.68,1.06,1.77,1.77,3.01,1.97l17.95,2.89
				c0.24,0.04,0.47,0.06,0.71,0.06c2.13,0,4-1.54,4.35-3.71C752.07,495.28,750.43,493.02,748.03,492.63z"/>
			<path class="st11" d="M214.02,401.33l72.64,2.62l62.86,3.59c0,0,29.71,1.87,39.12,4.48c9.41,2.61,11.51,2.27,10.47,10.46
				c-1.04,8.18-14.84,63.67-14.84,63.67l46.87,4.48l19.25-65.79c0,0,4.32-19.82,42.89-23.51c22.81-2.18,35.98-2.45,42.93-2.31
				c4.88,0.1,9.18,3.3,10.61,7.97c1.47,4.79,2.96,12.53,3.76,25c1.9,29.62,2.85,62.11,2.85,62.11l26.3-1.5l-9.51-96.12l75.11-1.63
				c0,0,19.14-1.88,27.65,11.4c8.52,13.28,56.42,87.84,56.42,87.84l17.95,2.89c0,0-4.85-9.34-7.64-14.51
				c-2.79-5.17-57.93-94.28-57.93-94.28s-24.74-20.4-105.72-27.95s-247.55-5.22-308.26,8.6
				C207.07,382.64,214.02,401.33,214.02,401.33z"/>
			<path class="st12" d="M238.67,389.91c0,0,118.61,6.18,181.05,5.97c62.44-0.22,191.22-11.25,191.22-11.25
				S508.9,361.6,410.21,366.09C311.51,370.59,238.67,389.91,238.67,389.91z"/>
			<path class="st8" d="M238.67,389.91c0,0,118.61,6.18,181.05,5.97c62.44-0.22,191.22-11.25,191.22-11.25
				S508.9,361.6,410.21,366.09C311.51,370.59,238.67,389.91,238.67,389.91z"/>
			<polygon class="st13" points="214.02,401.33 297.9,404.57 354.11,407.81 388.63,412.03 398.04,414.64 399.1,422.49 
				384.26,486.15 365.72,496.84 185.16,501.41 176.86,492.59 196.49,442.82 			"/>
			<polygon class="st14" points="176.86,492.59 337.69,490.19 337.69,552.27 149.74,552.27 			"/>
			<polygon class="st8" points="176.86,492.59 337.69,490.19 337.69,552.27 149.74,552.27 			"/>
			<path class="st4" d="M384.86,486.22c-0.2,0-0.4-0.02-0.6-0.07c-1.35-0.33-2.18-1.69-1.85-3.05c0.12-0.49,11.96-49.08,14.03-58.15
				c1.9-8.33-0.5-9.41-4.56-10.48c-5.23-1.38-49.48-6.01-75.35-6.96c-24.76-0.91-102.75-3.04-103.54-3.06
				c-1.39-0.04-2.49-1.2-2.45-2.59c0.04-1.39,1.18-2.55,2.59-2.45c0.78,0.02,78.8,2.15,103.59,3.06c25.23,0.93,70.3,5.51,76.45,7.13
				c8.01,2.11,10.38,6.88,8.2,16.47c-2.07,9.1-13.93,57.73-14.05,58.22C387.03,485.45,385.99,486.22,384.86,486.22z"/>
			<path class="st15" d="M384.86,486.22c-0.2,0-0.4-0.02-0.6-0.07c-1.35-0.33-2.18-1.69-1.85-3.05
				c0.12-0.49,11.96-49.08,14.03-58.15c1.9-8.33-0.5-9.41-4.56-10.48c-5.23-1.38-49.48-6.01-75.35-6.96
				c-24.76-0.91-102.75-3.04-103.54-3.06c-1.39-0.04-2.49-1.2-2.45-2.59c0.04-1.39,1.18-2.55,2.59-2.45
				c0.78,0.02,78.8,2.15,103.59,3.06c25.23,0.93,70.3,5.51,76.45,7.13c8.01,2.11,10.38,6.88,8.2,16.47
				c-2.07,9.1-13.93,57.73-14.05,58.22C387.03,485.45,385.99,486.22,384.86,486.22z"/>
			<path class="st16" d="M304.78,509.07c0,0,6.11-20.92,20.08-28.26c13.97-7.34,66.36-3.88,75.96-3.88c9.6,0,35.81,8.16,35.81,28.06
				"/>
			<path class="st8" d="M304.78,509.07c0,0,6.11-20.92,20.08-28.26c13.97-7.34,66.36-3.88,75.96-3.88c9.6,0,35.81,8.16,35.81,28.06"
				/>
			<path class="st8" d="M344.91,476.8c0,0,7.44,6.69,9.2,30.36"/>
			<path class="st8" d="M370.71,476.12c0,0,9.04,5.63,11.72,30.3"/>
			<path class="st16" d="M342.23,503.3c0,0,4.93-14.9,16.2-20.13c11.27-5.23,53.54-2.76,61.29-2.76s28.89,5.81,28.89,19.99"/>
			<path class="st8" d="M342.23,503.3c0,0,4.93-14.9,16.2-20.13c11.27-5.23,53.54-2.76,61.29-2.76s28.89,5.81,28.89,19.99"/>
			<path class="st16" d="M201.86,509.07c0,0,6.11-20.92,20.08-28.26s66.36-3.88,75.96-3.88c9.6,0,35.81,8.16,35.81,28.06"/>
			<path class="st8" d="M201.86,509.07c0,0,6.11-20.92,20.08-28.26s66.36-3.88,75.96-3.88c9.6,0,35.81,8.16,35.81,28.06"/>
			<path class="st8" d="M241.98,476.8c0,0,7.44,6.69,9.2,30.36"/>
			<path class="st8" d="M267.78,476.12c0,0,9.04,5.63,11.72,30.3"/>
			<path class="st8" d="M297.9,476.93c0,0,9.84,7.14,11.37,28.7"/>
			<path class="st17" d="M921.17,524.87c-18.69-7.4-134.94-16.93-134.94-16.93l-232.78-11.06c0,0-16.77,3.4-21.93,4.14
				c-5.16,0.74-12.78,0.49-16.96-8.36c-4.18-8.85-47.22-117.94-36.93-122.99c10.3-5.05,182.72,10.31,190.33,11.3
				c7.61,0.99,12.46,2.42,12.46,2.42l-7.46-7.69c0,0,10.06-5.03-15.81-13.17c-25.87-8.14-99.9-16.35-200.66-14.7
				c-100.75,1.65-213.62,18.72-220.78,19.82c-7.16,1.1-18.36,6.49-18.6,8.21c-0.25,1.72,7.13,1.72,7.13,1.72
				s-19.31,8.42-26.81,25.63c-7.5,17.2-33.08,89.98-39.7,103.65c-6.62,13.67-24.94,17.09-38.37,57.98
				c-13.43,40.89-16.66,104.52-16.66,104.52h5.06c0,0-2.42-46.98,21.31-61.51c23.73-14.53,64.45-7.99,74.61,61.51
				c0,0,0.49,17.3,12.69,17c12.2-0.3,269.08,13.84,269.08,13.84s14.48,2.48,16.33-14.24c1.86-16.71,8.81-74.27,66.06-78.01
				c57.25-3.75,76.51,65.81,76.51,65.81v14.19c0,0,1.57,4.51,5.56,4.51c3.98,0,290.52-13.15,290.52-13.15V561.38
				C940.44,561.38,934.66,530.22,921.17,524.87z M296.67,480.6c-0.82,17.2-3.54,25.93-16.16,25.93h-68.77
				c-4.47,0-8.64,0.04-12.48,0.07c-11.67,0.1-23.73,0.2-26.45-1.34c0.15-0.35,0.51-0.99,1.31-1.97
				c5.33-6.48,15.46-32.85,25.27-58.35c5.44-14.14,10.57-27.49,14.04-35.16c8.48-18.73,20.16-19.55,20.74-19.58l73.47-4.9
				C305.51,400.56,297.8,456.98,296.67,480.6z M474.16,499.81l-150.89,3.5l12.31-120.73c10.84-0.61,51.88-2.93,74.99-4.16
				c23.51-1.24,26.12,11.24,26.21,11.73c0.03,0.21,0.09,0.42,0.17,0.63c0.1,0.26,9.93,26.08,27.73,69.14
				C477.77,491.61,474.88,498.69,474.16,499.81z"/>
			<path class="st8" d="M921.17,524.87c-18.69-7.4-134.94-16.93-134.94-16.93l-232.78-11.06c0,0-16.77,3.4-21.93,4.14
				c-5.16,0.74-12.78,0.49-16.96-8.36c-4.18-8.85-47.22-117.94-36.93-122.99c10.3-5.05,182.72,10.31,190.33,11.3
				c7.61,0.99,12.46,2.42,12.46,2.42l-7.46-7.69c0,0,10.06-5.03-15.81-13.17c-25.87-8.14-99.9-16.35-200.66-14.7
				c-100.75,1.65-213.62,18.72-220.78,19.82c-7.16,1.1-18.36,6.49-18.6,8.21c-0.25,1.72,7.13,1.72,7.13,1.72
				s-19.31,8.42-26.81,25.63c-7.5,17.2-33.08,89.98-39.7,103.65c-6.62,13.67-24.94,17.09-38.37,57.98
				c-13.43,40.89-16.66,104.52-16.66,104.52h5.06c0,0-2.42-46.98,21.31-61.51c23.73-14.53,64.45-7.99,74.61,61.51
				c0,0,0.49,17.3,12.69,17c12.2-0.3,269.08,13.84,269.08,13.84s14.48,2.48,16.33-14.24c1.86-16.71,8.81-74.27,66.06-78.01
				c57.25-3.75,76.51,65.81,76.51,65.81v14.19c0,0,1.57,4.51,5.56,4.51c3.98,0,290.52-13.15,290.52-13.15V561.38
				C940.44,561.38,934.66,530.22,921.17,524.87z M296.67,480.6c-0.82,17.2-3.54,25.93-16.16,25.93h-68.77
				c-4.47,0-8.64,0.04-12.48,0.07c-11.67,0.1-23.73,0.2-26.45-1.34c0.15-0.35,0.51-0.99,1.31-1.97
				c5.33-6.48,15.46-32.85,25.27-58.35c5.44-14.14,10.57-27.49,14.04-35.16c8.48-18.73,20.16-19.55,20.74-19.58l73.47-4.9
				C305.51,400.56,297.8,456.98,296.67,480.6z M474.16,499.81l-150.89,3.5l12.31-120.73c10.84-0.61,51.88-2.93,74.99-4.16
				c23.51-1.24,26.12,11.24,26.21,11.73c0.03,0.21,0.09,0.42,0.17,0.63c0.1,0.26,9.93,26.08,27.73,69.14
				C477.77,491.61,474.88,498.69,474.16,499.81z"/>
			<ellipse class="st18" cx="702" cy="582.23" rx="27.38" ry="37.92"/>
			<ellipse class="st8" cx="702" cy="582.23" rx="27.38" ry="37.92"/>
			<path d="M554.43,497.54c0,0-0.77,7.26,10.11,7.5c10.88,0.24,75.54,4.34,101.07,9.03c25.53,4.69,46.89,10.94,60.44,61.48
				c0,0,67.21-24.49,167.77,0c0,0,2.61-23.82-22.93-39c-25.53-15.18-53.09-22.73-90.66-26.39c0,0-14.96-1.9-17.52-6.04
				c-2.57-4.14-19.04-7.58-92.16-10.22C597.43,491.26,554.58,489.29,554.43,497.54z"/>
			
				<rect x="711.72" y="378.02" transform="matrix(0.8543 -0.5198 0.5198 0.8543 -124.6155 435.0479)" class="st19" width="3.78" height="123.51"/>
			
				<rect x="711.72" y="378.02" transform="matrix(0.8543 -0.5198 0.5198 0.8543 -124.6155 435.0479)" class="st15" width="3.78" height="123.51"/>
			<path class="st19" d="M559.68,394.86l26.13,1.4c3.75,0.2,6.9,3,7.41,6.72c0.14,0.99,0.22,2.08,0.22,3.25
				c0,5.93-3.32,11.42-7.8,11.42s-17.2,0-19.8,0c-2.6,0-12.43-0.43-12.43-6.21V400.8C553.41,397.39,556.27,394.67,559.68,394.86z"/>
			<path class="st4" d="M559.11,395.88l23.77,1.27c3.41,0.18,6.28,2.73,6.74,6.12c0.12,0.9,0.2,1.89,0.2,2.96
				c0,5.39-3.02,10.39-7.1,10.39c-4.08,0-15.65,0-18.01,0c-2.37,0-11.31-0.39-11.31-5.65v-9.67
				C553.41,398.19,556.01,395.72,559.11,395.88z"/>
			<path class="st8" d="M559.68,394.86l26.13,1.4c3.75,0.2,6.9,3,7.41,6.72c0.14,0.99,0.22,2.08,0.22,3.25
				c0,5.93-3.32,11.42-7.8,11.42s-17.2,0-19.8,0c-2.6,0-12.43-0.43-12.43-6.21V400.8C553.41,397.39,556.27,394.67,559.68,394.86z"/>
			<path class="st4" d="M580.21,409.33c-0.75,0-1.5-0.26-2.1-0.8c-1.3-1.16-1.41-3.15-0.25-4.45l1.68-1.88
				c1.62-1.82,2.2-4.3,1.54-6.65l-4.55-16.28c-0.47-1.68,0.51-3.42,2.19-3.88c1.67-0.48,3.41,0.51,3.88,2.19l4.55,16.28
				c1.24,4.43,0.15,9.12-2.92,12.55l-1.68,1.88C581.94,408.97,581.08,409.33,580.21,409.33z"/>
			<path class="st8" d="M580.21,409.33c-0.75,0-1.5-0.26-2.1-0.8c-1.3-1.16-1.41-3.15-0.25-4.45l1.68-1.88
				c1.62-1.82,2.2-4.3,1.54-6.65l-4.55-16.28c-0.47-1.68,0.51-3.42,2.19-3.88c1.67-0.48,3.41,0.51,3.88,2.19l4.55,16.28
				c1.24,4.43,0.15,9.12-2.92,12.55l-1.68,1.88C581.94,408.97,581.08,409.33,580.21,409.33z"/>
			<path class="st20" d="M564.4,494.09c-0.13-0.28-3.29-6.97-14.69-8.94c-10.73-1.87-25.72,5.18-30.59,8.05
				c-3,1.77-6.86,0.77-8.63-2.23c-1.77-3-0.77-6.86,2.23-8.63c0.88-0.52,21.7-12.63,39.14-9.61c18.61,3.22,23.96,15.98,24.18,16.52
				l-11.69,4.72L564.4,494.09z"/>
			<path class="st8" d="M564.4,494.09c-0.13-0.28-3.29-6.97-14.69-8.94c-10.73-1.87-25.72,5.18-30.59,8.05
				c-3,1.77-6.86,0.77-8.63-2.23c-1.77-3-0.77-6.86,2.23-8.63c0.88-0.52,21.7-12.63,39.14-9.61c18.61,3.22,23.96,15.98,24.18,16.52
				l-11.69,4.72L564.4,494.09z"/>
			<path class="st4" d="M761.72,504.43c0-0.01-0.02-0.07-0.05-0.17c-0.39-1.27-1.58-2.13-2.91-2.17
				c-23.27-0.74-167.4-5.25-204.08-4.56c-0.09,0-0.17,0.01-0.26,0.02c-2.75,0.3-19.84,2.23-27.28,3.67
				c-13.97,2.71-18.49-10.1-33.55-59.46c-17.23-56.47-18.86-63.69-18.65-67.62c0.1-1.97,0.96-3.77,2.42-5.08
				c4.14-3.7,10.03-4.06,74.48-0.29c62.46,3.66,129.67,11.78,130.35,11.86c3.11,0.38,5.32,3.2,4.95,6.32
				c-0.38,3.11-3.19,5.33-6.32,4.95c-0.67-0.08-67.54-8.16-129.64-11.8c-25.11-1.47-47.23-2.69-58.85-2.66
				c-2.9,0.01-5.01,2.76-4.27,5.56c2.74,10.39,8.52,29.65,16.38,55.44c7.11,23.29,11.95,38.29,15.69,46.03
				c2.89,5.99,3.93,5.79,4.85,5.61c8.52-1.65,27.77-3.76,28.58-3.85c0.17-0.02,0.33-0.03,0.5-0.03
				c39.32-0.81,206.54,4.61,208.23,4.66c0.88,0.03,1.74,0.26,2.52,0.68c0.07,0.04,0.13,0.07,0.2,0.11
				c5.51,3.08,3.92,11.44-2.31,12.48l-1.02,0.17L761.72,504.43z"/>
			<path class="st8" d="M761.72,504.43c0-0.01-0.02-0.07-0.05-0.17c-0.39-1.27-1.58-2.13-2.91-2.17
				c-23.27-0.74-167.4-5.25-204.08-4.56c-0.09,0-0.17,0.01-0.26,0.02c-2.75,0.3-19.84,2.23-27.28,3.67
				c-13.97,2.71-18.49-10.1-33.55-59.46c-17.23-56.47-18.86-63.69-18.65-67.62c0.1-1.97,0.96-3.77,2.42-5.08
				c4.14-3.7,10.03-4.06,74.48-0.29c62.46,3.66,129.67,11.78,130.35,11.86c3.11,0.38,5.32,3.2,4.95,6.32
				c-0.38,3.11-3.19,5.33-6.32,4.95c-0.67-0.08-67.54-8.16-129.64-11.8c-25.11-1.47-47.23-2.69-58.85-2.66
				c-2.9,0.01-5.01,2.76-4.27,5.56c2.74,10.39,8.52,29.65,16.38,55.44c7.11,23.29,11.95,38.29,15.69,46.03
				c2.89,5.99,3.93,5.79,4.85,5.61c8.52-1.65,27.77-3.76,28.58-3.85c0.17-0.02,0.33-0.03,0.5-0.03
				c39.32-0.81,206.54,4.61,208.23,4.66c0.88,0.03,1.74,0.26,2.52,0.68c0.07,0.04,0.13,0.07,0.2,0.11
				c5.51,3.08,3.92,11.44-2.31,12.48l-1.02,0.17L761.72,504.43z"/>
			<path class="st4" d="M570.19,477.42h29.21c0,0,0-4.17,4.17-3.89c4.17,0.28,4.17,3.89,4.17,3.89s24.9,0.14,25.45,5.42
				c0,0,15.73-1.15,17.26,0c1.53,1.15,0.19,2.3,4.41,3.64c4.22,1.34,25.32,4.41,26.28,9.01c0.96,4.6,0.19,6.71-5.18,6.52
				c-5.37-0.19-32.61-10.17-36.06-10.36c-3.45-0.19-23.76-5.47-30.8-5.3c0,0-0.5,1.99-4.36,1.41c-3.86-0.57-4.19-4.1-4.19-4.1
				s-25.66,0.17-27.67-0.5C570.87,482.51,570.19,477.42,570.19,477.42z"/>
			<path class="st4" d="M656.01,477.31l26.6,0.86c0,0,0.13-4.17,3.93-3.77c3.79,0.4,3.67,4.01,3.67,4.01s22.67,0.87,23,6.17
				c0,0,14.36-0.68,15.72,0.51c1.36,1.19,0.1,2.3,3.9,3.77s22.91,5.15,23.64,9.78c0.72,4.63-0.04,6.71-4.93,6.37
				c-4.88-0.35-29.36-11.12-32.5-11.41c-3.14-0.29-21.46-6.17-27.88-6.21c0,0-0.52,1.97-4.02,1.28c-3.49-0.69-3.69-4.22-3.69-4.22
				s-23.37-0.59-25.18-1.32C656.47,482.41,656.01,477.31,656.01,477.31z"/>
			<path class="st8" d="M570.19,477.42h29.21c0,0,0-4.17,4.17-3.89c4.17,0.28,4.17,3.89,4.17,3.89s24.9,0.14,25.45,5.42
				c0,0,15.73-1.15,17.26,0c1.53,1.15,0.19,2.3,4.41,3.64c4.22,1.34,25.32,4.41,26.28,9.01c0.96,4.6,0.19,6.71-5.18,6.52
				c-5.37-0.19-32.61-10.17-36.06-10.36c-3.45-0.19-23.76-5.47-30.8-5.3c0,0-0.5,1.99-4.36,1.41c-3.86-0.57-4.19-4.1-4.19-4.1
				s-25.66,0.17-27.67-0.5C570.87,482.51,570.19,477.42,570.19,477.42z"/>
			<path class="st8" d="M656.01,477.31l26.6,0.86c0,0,0.13-4.17,3.93-3.77c3.79,0.4,3.67,4.01,3.67,4.01s22.67,0.87,23,6.17
				c0,0,14.36-0.68,15.72,0.51c1.36,1.19,0.1,2.3,3.9,3.77s22.91,5.15,23.64,9.78c0.72,4.63-0.04,6.71-4.93,6.37
				c-4.88-0.35-29.36-11.12-32.5-11.41c-3.14-0.29-21.46-6.17-27.88-6.21c0,0-0.52,1.97-4.02,1.28c-3.49-0.69-3.69-4.22-3.69-4.22
				s-23.37-0.59-25.18-1.32C656.47,482.41,656.01,477.31,656.01,477.31z"/>
			<path class="st21" d="M794.82,537.08c0,0-1.93-7.55,6.42-9.8c8.35-2.25,17.83,0.16,21.04,13.49c3.21,13.33,1.45,19.59-3.21,20.56
				c-4.66,0.96-8.2,1.61-9.8-2.09C807.67,555.55,798.99,542.87,794.82,537.08z"/>
			<path class="st22" d="M799.12,539.24c0,0-1.35-5.3,4.51-6.88c5.86-1.58,12.52,0.11,14.77,9.47c2.26,9.36,1.01,13.76-2.26,14.43
				c-3.27,0.68-5.75,1.13-6.88-1.47C808.14,552.21,802.05,543.3,799.12,539.24z"/>
			<ellipse class="st4" cx="706.31" cy="582.44" rx="23.07" ry="30.01"/>
			<ellipse class="st8" cx="706.31" cy="582.44" rx="23.07" ry="30.01"/>
			<ellipse class="st18" cx="934.5" cy="580.39" rx="23.46" ry="33.64"/>
			<ellipse class="st8" cx="934.5" cy="580.39" rx="23.46" ry="33.64"/>
			<ellipse class="st4" cx="938.29" cy="579.13" rx="20.93" ry="30.01"/>
			<ellipse class="st8" cx="938.29" cy="579.13" rx="20.93" ry="30.01"/>
			<g>
				<ellipse class="st23" cx="926.68" cy="647.22" rx="8.04" ry="12.38"/>
				<ellipse class="st15" cx="926.68" cy="647.22" rx="8.04" ry="12.38"/>
				<path class="st24" d="M933.68,637.9h-7.2c-0.95,0-1.86,0.4-2.46,1.14c-1.19,1.47-2.89,4.45-2.84,9.45
					c0.04,4.1,2.12,6.35,3.44,7.36c0.57,0.44,1.26,0.68,1.98,0.68h7.08c3.25,0,5.89-4.17,5.89-9.32
					C939.56,642.07,936.93,637.9,933.68,637.9z"/>
			</g>
			<path class="st7" d="M721.43,640.96l24.3-35.5c2.32-3.39,6.05-5.54,10.15-5.85l22.58-1.72c38.28-2.92,76.73-2.56,114.95,1.06h0
				c4.01,0.38,7.64,2.52,9.91,5.85l19.07,27.95c2.66,3.89,3.1,8.88,1.17,13.18l-6.17,13.73c-2.07,4.61-6.53,7.68-11.57,7.97
				l-164.49,9.47c-5.28,0.3-10.26-2.5-12.74-7.18l-7.93-14.96C718.28,650.51,718.58,645.12,721.43,640.96z"/>
			<path class="st25" d="M721.43,640.96l24.3-35.5c2.32-3.39,6.05-5.54,10.15-5.85l22.58-1.72c38.28-2.92,76.73-2.56,114.95,1.06h0
				c4.01,0.38,7.64,2.52,9.91,5.85l19.07,27.95c2.66,3.89,3.1,8.88,1.17,13.18l-6.17,13.73c-2.07,4.61-6.53,7.68-11.57,7.97
				l-164.49,9.47c-5.28,0.3-10.26-2.5-12.74-7.18l-7.93-14.96C718.28,650.51,718.58,645.12,721.43,640.96z"/>
			<g>
				<defs>
					<path id="SVGID_1_" d="M739.68,642.35c0,0,13.17-21.64,19.94-24.22c6.77-2.58,61.27-3.7,76.42-4.11
						c15.16-0.41,47.4-2.99,56.11,3.78c8.71,6.77,13.66,17.73,15.16,20.96c1.72,3.73-3.22,19.03-7.74,19.67
						c-4.51,0.64-81.58,3.22-108.35,5.16c-26.76,1.93-46.43,1.93-49.01-2.9C739.63,655.86,736.71,647.03,739.68,642.35z"/>
				</defs>
				<clipPath id="SVGID_2_">
					<use xlink:href="#SVGID_1_"  style="overflow:visible;"/>
				</clipPath>
				<polygon class="st26" points="756.55,620.14 892.15,617.81 890.93,612.45 827.9,603.78 756.55,609.14 				"/>
				<polygon class="st26" points="747.03,626.38 906.21,623.2 906.21,627.97 743.21,630.84 				"/>
				<polygon class="st26" points="738.43,639.01 907.66,633.7 907.31,638.77 737.81,643.12 				"/>
				<polygon class="st26" points="736.45,648.97 911.05,644.47 907.66,648.97 736.45,654.59 				"/>
				<polygon class="st26" points="738.43,661.34 906.21,656.47 901.32,661.34 741.92,667.21 				"/>
			</g>
			<path class="st4" d="M653.14,698.66c0,0-6.35-11.8,22.68-13.91c29.03-2.12,267.6-11.71,275.94-11.4
				c8.35,0.31,12.06,6.45,10.51,12.65c-1.55,6.2-50.93,13.21-113.07,14.34s-149.27,6.57-163.05,6.66
				C676.84,707.05,655.2,711.87,653.14,698.66z"/>
			<path class="st8" d="M653.14,698.66c0,0-6.35-11.8,22.68-13.91c29.03-2.12,267.6-11.71,275.94-11.4
				c8.35,0.31,12.06,6.45,10.51,12.65c-1.55,6.2-50.93,13.21-113.07,14.34s-149.27,6.57-163.05,6.66
				C676.84,707.05,655.2,711.87,653.14,698.66z"/>
			<g>
				<ellipse class="st23" cx="702.51" cy="656.53" rx="9.24" ry="14.22"/>
				<ellipse class="st15" cx="702.51" cy="656.53" rx="9.24" ry="14.22"/>
				<path class="st24" d="M710.55,645.84h-8.26c-1.09,0-2.14,0.46-2.83,1.31c-1.37,1.69-3.32,5.11-3.26,10.85
					c0.04,4.71,2.43,7.29,3.95,8.46c0.65,0.5,1.45,0.78,2.27,0.78h8.13c3.73,0,6.76-4.79,6.76-10.7
					C717.31,650.63,714.28,645.84,710.55,645.84z"/>
			</g>
			<path class="st4" d="M319.77,509.69c-0.88,0-1.72-0.37-2.31-1.01c-0.61-0.66-0.91-1.56-0.82-2.46l12.95-126.96
				c0.16-1.54,1.41-2.74,2.96-2.83c0.51-0.03,51.03-2.9,77.7-4.32c27.45-1.46,32.09,13.92,32.7,16.65
				c1.03,2.7,10.72,27.96,27.57,68.73c9.9,23.96,12.94,39.31,9.02,45.62c-1.28,2.06-3.1,2.88-4.38,2.97c-0.05,0-0.09,0-0.14,0.01
				l-155.16,3.6C319.82,509.69,319.79,509.69,319.77,509.69z M335.58,382.57L323.26,503.3l150.89-3.5c0.73-1.11,3.62-8.19-9.48-39.9
				c-17.79-43.06-27.63-68.88-27.73-69.14c-0.08-0.2-0.13-0.41-0.17-0.63c-0.09-0.49-2.7-12.98-26.21-11.73
				C387.45,379.64,346.42,381.96,335.58,382.57z"/>
			<path class="st8" d="M319.77,509.69c-0.88,0-1.72-0.37-2.31-1.01c-0.61-0.66-0.91-1.56-0.82-2.46l12.95-126.96
				c0.16-1.54,1.41-2.74,2.96-2.83c0.51-0.03,51.03-2.9,77.7-4.32c27.45-1.46,32.09,13.92,32.7,16.65
				c1.03,2.7,10.72,27.96,27.57,68.73c9.9,23.96,12.94,39.31,9.02,45.62c-1.28,2.06-3.1,2.88-4.38,2.97c-0.05,0-0.09,0-0.14,0.01
				l-155.16,3.6C319.82,509.69,319.79,509.69,319.77,509.69z M335.58,382.57L323.26,503.3l150.89-3.5c0.73-1.11,3.62-8.19-9.48-39.9
				c-17.79-43.06-27.63-68.88-27.73-69.14c-0.08-0.2-0.13-0.41-0.17-0.63c-0.09-0.49-2.7-12.98-26.21-11.73
				C387.45,379.64,346.42,381.96,335.58,382.57z"/>
			<path class="st4" d="M190,512.96c-14.14,0-21-0.67-23.08-5.03c-1.75-3.67,1.32-7.41,2.33-8.64c4.68-5.69,15.53-33.93,24.25-56.61
				c5.47-14.23,10.63-27.67,14.18-35.5c10.21-22.56,25.54-23.25,26.18-23.27l77.22-5.15c0.95-0.07,1.87,0.3,2.52,1
				c0.65,0.7,0.94,1.65,0.81,2.59c-0.1,0.71-10.16,71.53-11.45,98.55c-0.91,19.17-5.08,31.94-22.46,31.94h-68.77
				c-4.45,0-8.6,0.04-12.43,0.07C195.91,512.94,192.81,512.96,190,512.96z M172.8,505.27c2.73,1.54,14.78,1.44,26.45,1.34
				c3.85-0.03,8.02-0.07,12.48-0.07h68.77c12.62,0,15.34-8.73,16.16-25.93c1.13-23.63,8.84-80.04,10.96-95.29l-73.47,4.9
				c-0.58,0.03-12.26,0.84-20.74,19.58c-3.47,7.67-8.61,21.02-14.04,35.16c-9.8,25.5-19.94,51.87-25.27,58.35
				C173.31,504.28,172.96,504.92,172.8,505.27z"/>
			<path class="st8" d="M190,512.96c-14.14,0-21-0.67-23.08-5.03c-1.75-3.67,1.32-7.41,2.33-8.64c4.68-5.69,15.53-33.93,24.25-56.61
				c5.47-14.23,10.63-27.67,14.18-35.5c10.21-22.56,25.54-23.25,26.18-23.27l77.22-5.15c0.95-0.07,1.87,0.3,2.52,1
				c0.65,0.7,0.94,1.65,0.81,2.59c-0.1,0.71-10.16,71.53-11.45,98.55c-0.91,19.17-5.08,31.94-22.46,31.94h-68.77
				c-4.45,0-8.6,0.04-12.43,0.07C195.91,512.94,192.81,512.96,190,512.96z M172.8,505.27c2.73,1.54,14.78,1.44,26.45,1.34
				c3.85-0.03,8.02-0.07,12.48-0.07h68.77c12.62,0,15.34-8.73,16.16-25.93c1.13-23.63,8.84-80.04,10.96-95.29l-73.47,4.9
				c-0.58,0.03-12.26,0.84-20.74,19.58c-3.47,7.67-8.61,21.02-14.04,35.16c-9.8,25.5-19.94,51.87-25.27,58.35
				C173.31,504.28,172.96,504.92,172.8,505.27z"/>
			<path class="st8" d="M224.24,377.58c0,0,190.45-15.37,221.23-17.35c30.77-1.97,227.49,15.47,227.49,15.47"/>
			<path class="st8" d="M445.47,360.24c0,0,1.4,12.25,10.29,34.61C464.66,417.21,496,498.96,496,498.96s3.16,10.36-1.73,14.35
				c-4.89,4-2.14,22.41,15.35,56.1c17.48,33.69,22.98,50.74,22.98,50.74"/>
			<path class="st8" d="M475.14,506.08c0,0-1.32,6.08-6.6,11.73c-5.28,5.65-6.74,20.49-7.16,52.71c-0.42,32.22,0,113.2,0,113.2"/>
			<line class="st8" x1="501.79" y1="685.97" x2="204.01" y2="672.47"/>
			<path class="st8" d="M324.83,369.53l-14.62,127.13c0,0-2.24,15.16-13.92,21.84c-11.68,6.67-16.83,29.42-17.28,43
				c-0.45,13.58-1.81,82.96-1.81,86.49s-1.07,25.39,5.17,28.04"/>
			<path class="st27" d="M243.44,525.14h56.97c2.89,0,4.99,2.75,4.22,5.54l-3.92,14.22c-0.52,1.9-2.25,3.21-4.22,3.21h-57.49
				c-2.95,0-5.06-2.86-4.18-5.68l4.43-14.22C239.83,526.39,241.53,525.14,243.44,525.14z"/>
			<path class="st8" d="M243.44,525.14h56.97c2.89,0,4.99,2.75,4.22,5.54l-3.92,14.22c-0.52,1.9-2.25,3.21-4.22,3.21h-57.49
				c-2.95,0-5.06-2.86-4.18-5.68l4.43-14.22C239.83,526.39,241.53,525.14,243.44,525.14z"/>
			<path class="st27" d="M238.67,543.27v-3c0-3.22,1.55-6.27,4.14-8.18c3.76-2.77,8.9-2.62,12.5,0.36l0.1,0.09
				c2.33,1.93,3.67,4.78,3.67,7.81v2.92c0,1.74-1.41,3.15-3.15,3.15s-3.15-1.41-3.15-3.15v-2.92c0-1.15-0.51-2.23-1.39-2.96
				l-0.1-0.08c-1.36-1.13-3.31-1.18-4.74-0.13c-0.98,0.72-1.57,1.88-1.57,3.1v3c0,1.74-1.41,3.15-3.15,3.15
				C240.08,546.42,238.67,545.01,238.67,543.27z"/>
			<path class="st8" d="M238.67,543.27v-3c0-3.22,1.55-6.27,4.14-8.18c3.76-2.77,8.9-2.62,12.5,0.36l0.1,0.09
				c2.33,1.93,3.67,4.78,3.67,7.81v2.92c0,1.74-1.41,3.15-3.15,3.15s-3.15-1.41-3.15-3.15v-2.92c0-1.15-0.51-2.23-1.39-2.96
				l-0.1-0.08c-1.36-1.13-3.31-1.18-4.74-0.13c-0.98,0.72-1.57,1.88-1.57,3.1v3c0,1.74-1.41,3.15-3.15,3.15
				C240.08,546.42,238.67,545.01,238.67,543.27z"/>
			<path class="st27" d="M247.79,543.18h-3c-3.22,0-6.27-1.55-8.18-4.14c-2.77-3.76-2.62-8.9,0.36-12.5l0.08-0.1
				c1.93-2.33,4.78-3.67,7.81-3.67h2.92c1.74,0,3.15,1.41,3.15,3.15c0,1.74-1.41,3.15-3.15,3.15h-2.92c-1.15,0-2.23,0.51-2.96,1.39
				l-0.08,0.1c-1.13,1.36-1.18,3.31-0.13,4.74c0.72,0.98,1.88,1.57,3.1,1.57h3c1.74,0,3.15,1.41,3.15,3.15
				C250.94,541.77,249.53,543.18,247.79,543.18z"/>
			<path class="st8" d="M247.79,543.18h-3c-3.22,0-6.27-1.55-8.18-4.14c-2.77-3.76-2.62-8.9,0.36-12.5l0.08-0.1
				c1.93-2.33,4.78-3.67,7.81-3.67h2.92c1.74,0,3.15,1.41,3.15,3.15c0,1.74-1.41,3.15-3.15,3.15h-2.92c-1.15,0-2.23,0.51-2.96,1.39
				l-0.08,0.1c-1.13,1.36-1.18,3.31-0.13,4.74c0.72,0.98,1.88,1.57,3.1,1.57h3c1.74,0,3.15,1.41,3.15,3.15
				C250.94,541.77,249.53,543.18,247.79,543.18z"/>
			<path class="st28" d="M256.43,568.98H237c-2.21,0-3.92-1.92-3.67-4.11l1.7-15.17c0.21-1.87,1.79-3.29,3.67-3.29h19.44
				c2.21,0,3.92,1.92,3.67,4.11l-1.7,15.17C259.9,567.57,258.31,568.98,256.43,568.98z"/>
			<path class="st8" d="M256.43,568.98H237c-2.21,0-3.92-1.92-3.67-4.11l1.7-15.17c0.21-1.87,1.79-3.29,3.67-3.29h19.44
				c2.21,0,3.92,1.92,3.67,4.11l-1.7,15.17C259.9,567.57,258.31,568.98,256.43,568.98z"/>
			<path class="st7" d="M744.25,704.31l-1.35,30.85c0,0-1.68,6.73,7.07,6.73c8.75,0,124.48-9.42,124.48-9.42s7.4-0.67,7.4-7.74
				s0-25.56,0-25.56L744.25,704.31z"/>
			<path class="st8" d="M744.25,704.31l-1.35,30.85c0,0-1.68,6.73,7.07,6.73c8.75,0,124.48-9.42,124.48-9.42s7.4-0.67,7.4-7.74
				s0-25.56,0-25.56L744.25,704.31z"/>
			<g>
				<path d="M770.18,727.46c0,0.57,0.04,1.09,0.13,1.55c0.09,0.46,0.25,0.84,0.49,1.15c0.24,0.3,0.56,0.53,0.97,0.68
					c0.4,0.15,0.91,0.2,1.52,0.16c0.72-0.05,1.36-0.35,1.93-0.88c0.57-0.53,0.86-1.3,0.86-2.32c0-0.54-0.07-1.01-0.21-1.4
					c-0.14-0.39-0.37-0.73-0.69-1.02c-0.32-0.3-0.75-0.56-1.28-0.78c-0.53-0.23-1.19-0.45-1.97-0.67c-1.05-0.3-1.96-0.64-2.72-1.02
					c-0.77-0.39-1.41-0.86-1.93-1.41c-0.52-0.55-0.9-1.21-1.15-1.97c-0.24-0.76-0.37-1.64-0.37-2.66c0-2.44,0.65-4.29,1.96-5.55
					c1.3-1.25,3.07-1.92,5.32-2.02c1.04-0.04,2,0.04,2.87,0.24c0.87,0.2,1.62,0.55,2.25,1.06c0.63,0.5,1.12,1.16,1.47,1.96
					c0.35,0.81,0.53,1.78,0.53,2.93v0.68l-4.42,0.24c0-1.16-0.19-2.04-0.58-2.64c-0.39-0.61-1.04-0.89-1.95-0.84
					c-0.52,0.02-0.96,0.13-1.3,0.3c-0.35,0.18-0.63,0.4-0.83,0.67c-0.21,0.27-0.35,0.58-0.43,0.93c-0.08,0.35-0.12,0.7-0.12,1.07
					c0,0.75,0.15,1.38,0.46,1.88c0.31,0.5,0.96,0.93,1.96,1.31l3.59,1.42c0.88,0.35,1.6,0.73,2.15,1.14c0.55,0.41,1,0.85,1.33,1.34
					c0.33,0.48,0.56,1.03,0.68,1.63c0.13,0.6,0.19,1.27,0.19,2.01c0,2.54-0.69,4.45-2.09,5.72c-1.4,1.28-3.36,2.02-5.89,2.23
					c-2.66,0.22-4.58-0.23-5.73-1.36c-1.16-1.13-1.75-2.83-1.75-5.12v-1l4.76-0.33V727.46z"/>
				<path d="M796.07,712.66l-4.76,0.24v19.78l-4.46,0.36v-19.92l-4.9,0.24v-3.98l14.11-0.61V712.66z"/>
				<path d="M809.71,711.99l-7.47,0.37v5.48l7.04-0.41v3.8l-7.04,0.45v6.26l7.76-0.58v3.8l-12.06,0.98V708.7l11.77-0.51V711.99z"/>
				<path d="M822.61,726.91c0.27,0.45,0.73,0.65,1.4,0.6c0.53-0.04,0.95-0.22,1.27-0.52c0.31-0.31,0.55-0.72,0.73-1.23
					c0.17-0.51,0.29-1.12,0.34-1.81c0.05-0.69,0.08-1.45,0.08-2.26v-1.07l-0.05,0c-0.33,0.59-0.8,1.07-1.41,1.46
					c-0.62,0.39-1.36,0.61-2.25,0.67c-0.87,0.06-1.61-0.06-2.23-0.37c-0.61-0.31-1.11-0.76-1.5-1.36c-0.38-0.6-0.67-1.32-0.84-2.17
					c-0.18-0.85-0.27-1.78-0.27-2.8c0-2.61,0.51-4.62,1.53-6.05c1.02-1.42,2.64-2.17,4.85-2.27c1.36-0.06,2.43,0.18,3.24,0.72
					c0.8,0.54,1.41,1.27,1.84,2.19c0.42,0.92,0.7,2,0.83,3.24c0.13,1.24,0.19,2.53,0.19,3.88c0,1.58-0.04,3.1-0.12,4.57
					c-0.08,1.47-0.32,2.78-0.73,3.93c-0.41,1.15-1.05,2.09-1.93,2.82c-0.88,0.73-2.12,1.16-3.72,1.29c-0.7,0.06-1.38,0.03-2.04-0.07
					c-0.66-0.1-1.24-0.35-1.74-0.74c-0.5-0.39-0.91-0.94-1.22-1.65c-0.31-0.71-0.47-1.6-0.49-2.68l3.86-0.28
					C822.21,725.81,822.34,726.45,822.61,726.91z M822.4,718.46c0.33,0.63,0.89,0.92,1.66,0.87c0.79-0.05,1.35-0.41,1.68-1.08
					c0.33-0.67,0.49-1.75,0.49-3.26c0-0.63-0.03-1.21-0.08-1.75c-0.05-0.54-0.16-1-0.31-1.38c-0.16-0.38-0.38-0.67-0.66-0.88
					c-0.28-0.21-0.66-0.3-1.12-0.28c-0.48,0.02-0.86,0.15-1.15,0.39c-0.29,0.23-0.5,0.56-0.65,0.96c-0.15,0.41-0.25,0.88-0.29,1.42
					c-0.05,0.54-0.07,1.12-0.07,1.76C821.9,716.75,822.07,717.82,822.4,718.46z"/>
				<path d="M835.11,711.16l-0.4,4.99l0.05,0c0.35-0.6,0.81-1.04,1.38-1.33c0.56-0.29,1.25-0.45,2.06-0.5
					c0.89-0.05,1.63,0.11,2.21,0.47c0.58,0.36,1.04,0.86,1.38,1.49c0.34,0.63,0.57,1.35,0.71,2.17c0.14,0.81,0.21,1.65,0.21,2.5
					c0,1.2-0.09,2.29-0.26,3.28c-0.17,0.99-0.48,1.85-0.92,2.59c-0.44,0.74-1.05,1.32-1.81,1.73c-0.77,0.42-1.75,0.68-2.94,0.78
					c-1.18,0.1-2.14-0.01-2.88-0.32c-0.74-0.31-1.31-0.76-1.7-1.34c-0.39-0.58-0.66-1.22-0.79-1.93c-0.13-0.71-0.2-1.37-0.2-1.99
					v-0.59l3.69-0.26c0,0.37,0.02,0.76,0.05,1.17c0.04,0.41,0.12,0.79,0.25,1.14c0.13,0.35,0.32,0.63,0.57,0.85
					c0.25,0.22,0.57,0.31,0.98,0.28c0.79-0.06,1.36-0.46,1.7-1.19c0.34-0.73,0.51-1.8,0.51-3.21c0-0.9-0.03-1.64-0.1-2.23
					c-0.07-0.59-0.19-1.05-0.35-1.39c-0.17-0.34-0.39-0.57-0.67-0.69c-0.28-0.13-0.63-0.18-1.05-0.15
					c-0.55,0.03-0.97,0.24-1.26,0.62c-0.29,0.38-0.47,0.88-0.54,1.5l-3.45,0.22l0.7-11.98l9.74-0.43v3.41L835.11,711.16z"/>
				<path d="M843.85,728.42c0-0.95,0.08-1.85,0.24-2.69c0.16-0.84,0.41-1.65,0.75-2.42c0.33-0.77,0.75-1.53,1.26-2.29
					c0.5-0.75,1.08-1.51,1.75-2.28l1.47-1.72c0.4-0.45,0.73-0.86,0.97-1.23c0.24-0.37,0.43-0.75,0.57-1.11
					c0.13-0.37,0.22-0.76,0.26-1.18c0.04-0.42,0.06-0.9,0.06-1.44c0-1.76-0.59-2.61-1.76-2.56c-0.46,0.02-0.81,0.15-1.08,0.39
					c-0.26,0.23-0.47,0.55-0.61,0.93c-0.14,0.39-0.24,0.84-0.28,1.34c-0.04,0.51-0.06,1.04-0.06,1.6l-3.53,0.2v-0.82
					c0-2.01,0.45-3.57,1.36-4.68c0.9-1.11,2.32-1.71,4.25-1.79c1.81-0.08,3.15,0.36,4.01,1.32c0.86,0.95,1.29,2.36,1.29,4.2
					c0,0.68-0.05,1.31-0.15,1.9c-0.1,0.59-0.26,1.16-0.47,1.71c-0.22,0.55-0.5,1.09-0.85,1.62c-0.35,0.53-0.77,1.08-1.27,1.65
					l-2.01,2.36c-0.54,0.62-0.96,1.22-1.26,1.79c-0.3,0.58-0.5,1.07-0.58,1.48l6.7-0.5v3.34L843.85,728.42z"/>
				<path d="M863.22,705.88c1.44-0.06,2.55,0.33,3.35,1.18c0.79,0.85,1.19,2.17,1.19,3.98c0,1.4-0.23,2.55-0.69,3.46
					c-0.46,0.91-1.17,1.53-2.14,1.84v0.06c0.86,0.1,1.49,0.4,1.88,0.9c0.4,0.5,0.64,1.33,0.74,2.49c0.03,0.39,0.06,0.81,0.07,1.26
					c0.02,0.46,0.03,0.97,0.05,1.53c0.03,1.1,0.08,1.95,0.14,2.52c0.09,0.57,0.3,0.96,0.61,1.14v0.18l-3.71,0.3
					c-0.18-0.28-0.29-0.61-0.34-0.98c-0.05-0.38-0.08-0.77-0.1-1.18l-0.1-4.01c-0.03-0.82-0.2-1.45-0.5-1.9
					c-0.3-0.45-0.82-0.65-1.54-0.6l-1.87,0.12v8.92l-3.52,0.29v-21.21L863.22,705.88z M861.72,715.13c0.84-0.05,1.48-0.33,1.93-0.83
					c0.45-0.51,0.67-1.32,0.67-2.46c0-1.93-0.8-2.86-2.41-2.78l-1.65,0.08v6.08L861.72,715.13z"/>
			</g>
			<path class="st8" d="M374.61,480.31c0,0,6,4.77,7.42,21.63"/>
			<path class="st8" d="M395.42,479.83c0,0,7.3,4.01,9.46,21.58"/>
			<path class="st8" d="M419.73,480.41c0,0,7.94,5.09,9.18,20.45"/>
		</g>
	</g>
</g>
<g id="Layer_4">
</g>
<g id="Layer_3">
</g>
</svg>
